HIERARCHY
ROOT pelvis
{
	OFFSET 0.00 0.00 0.00
	CHANNELS 6 Xposition Yposition Zposition Xrotation Yrotation Zrotation
	JOINT lfemur
	{
		OFFSET 0.00000 3.26371 0.00000
		CHANNELS 3 Xrotation Yrotation Zrotation
		JOINT ltibia
		{
			OFFSET 0.00000 0.00000 -17.39272
			CHANNELS 3 Xrotation Yrotation Zrotation
			JOINT lfoot
			{
				OFFSET 0.00000 0.00000 -17.72520
				CHANNELS 3 Xrotation Yrotation Zrotation
				JOINT ltoes
				{
					OFFSET 4.21806 0.00000 0.00000
					CHANNELS 3 Xrotation Yrotation Zrotation
				}
			}
		}
	}
	JOINT rfemur
	{
		OFFSET 0.00000 -3.26371 0.00000
		CHANNELS 3 Xrotation Yrotation Zrotation
		JOINT rtibia
		{
			OFFSET 0.00000 0.00000 -17.39272
			CHANNELS 3 Xrotation Yrotation Zrotation
			JOINT rfoot
			{
				OFFSET 0.00000 0.00000 -17.72520
				CHANNELS 3 Xrotation Yrotation Zrotation
				JOINT rtoes
				{
					OFFSET 4.21806 0.00000 0.00000
					CHANNELS 3 Xrotation Yrotation Zrotation
				}
			}
		}
	}
	JOINT thorax
	{
		OFFSET -1.96850 0.00000 6.16593
		CHANNELS 6 Xposition Yposition Zposition Xrotation Yrotation Zrotation
		JOINT head
		{
			OFFSET 0.00000 0.00000 18.21355
			CHANNELS 6 Xposition Yposition Zposition Xrotation Yrotation Zrotation
		}
		JOINT lclavicle
		{
			OFFSET 0.00000 0.00000 15.13875
			CHANNELS 3 Xrotation Yrotation Zrotation
			JOINT lhumerus
			{
				OFFSET 0.00000 7.18963 -1.52650
				CHANNELS 3 Xrotation Yrotation Zrotation
				JOINT lradius
				{
					OFFSET 0.00000 0.00000 -10.12096
					CHANNELS 3 Xrotation Yrotation Zrotation
					JOINT lhand
					{
						OFFSET 0.00000 0.00000 -10.45726
						CHANNELS 3 Xrotation Yrotation Zrotation
					}
				}
			}
		}
		JOINT rclavicle
		{
			OFFSET 0.00000 0.00000 15.13875
			CHANNELS 3 Xrotation Yrotation Zrotation
			JOINT rhumerus
			{
				OFFSET 0.00000 -7.18963 -1.52650
				CHANNELS 3 Xrotation Yrotation Zrotation
				JOINT rradius
				{
					OFFSET 0.00000 0.00000 -10.12096
					CHANNELS 3 Xrotation Yrotation Zrotation
					JOINT rhand
					{
						OFFSET 0.00000 0.00000 -10.45726
						CHANNELS 3 Xrotation Yrotation Zrotation
					}
				}
			}
		}
	}
}
MOTION
Frames: 11
Frame Time: 0.008333
 82.5660 -0.2057 25.9138 -5.1276 8.2702 -27.1700 68.3041 -47.4002 70.9740 -0.0000 83.6954 0.0000 0.0000 4.0174 -17.3612 0.0000 -20.2769 -0.0000 -17.3899 17.6601 -9.0981 -0.0000 29.3557 0.0000 0.0000 -3.9600 -19.4412 0.0000 -41.1150 -0.0000 81.6242 2.2730 31.9156 4.8202 0.4569 -2.4469 83.1801 0.5993 50.0206 1.9607 0.4885 31.8965 -3.7184 -0.0000 -26.3572 98.7296 -34.8514 77.8069 0.0000 -6.7915 -74.9161 6.8290 4.9102 0.0000 5.0198 -0.0000 -4.1581 -48.5367 28.8910 39.4644 180.0000 -73.5043 137.8802 32.3906 -4.2456 0.0000
 82.5893 -0.2105 25.8950 -5.1195 8.2949 -27.1699 68.3929 -47.4354 71.0178 -0.0000 83.8168 0.0000 0.0000 3.9656 -17.3311 0.0000 -20.3640 -0.0000 -17.4041 17.6833 -9.0896 -0.0000 29.3513 0.0000 0.0000 -3.9737 -19.4586 0.0000 -41.1332 -0.0000 81.6488 2.2675 31.9013 4.8267 0.4042 -2.4561 83.1945 0.5956 50.0089 1.9073 0.4754 31.9121 -3.7332 -0.0000 -26.3463 98.6982 -34.8514 77.7811 0.0000 -6.7896 -74.9585 6.7821 4.8923 0.0000 5.0117 -0.0000 -4.1592 -48.5087 28.9529 39.4402 180.0000 -73.4911 137.9574 32.3994 -4.2932 0.0000
 82.6110 -0.2147 25.8779 -5.1137 8.3151 -27.1700 68.4593 -47.4629 71.0543 -0.0000 83.9248 0.0000 0.0000 3.9284 -17.3102 0.0000 -20.5231 -0.0000 -17.4162 17.6918 -9.0631 -0.0000 29.3715 0.0000 0.0000 -3.9462 -19.4790 0.0000 -41.1592 -0.0000 81.6704 2.2629 31.8857 4.8332 0.3650 -2.4597 83.2066 0.5923 49.9947 1.8796 0.4587 31.9035 -3.7437 -0.0000 -26.3360 98.6793 -34.8589 77.7576 0.0000 -6.7859 -74.9878 6.7549 4.8933 0.0000 5.0087 -0.0000 -4.1600 -48.4759 29.0064 39.4012 180.0000 -73.4557 137.9714 32.3728 -4.3134 0.0000
 82.6339 -0.2200 25.8588 -5.1041 8.3431 -27.1795 68.5529 -47.4947 71.1059 -0.0000 84.0448 0.0000 0.0000 3.8675 -17.2600 0.0000 -20.6123 -0.0000 -17.4351 17.7121 -9.0445 -0.0000 29.3629 0.0000 0.0000 -3.9676 -19.4768 0.0000 -41.1827 -0.0000 81.6925 2.2581 31.8718 4.8365 0.3212 -2.4570 83.2214 0.5898 49.9818 1.8509 0.4406 31.9266 -3.7519 -0.0000 -26.3193 98.6690 -34.8718 77.7301 0.0000 -6.7739 -75.0140 6.7731 4.8894 -0.0000 5.0035 -0.0000 -4.1538 -48.4553 29.0647 39.3816 180.0000 -73.4378 138.0599 32.3972 -4.3924 0.0000
 82.6538 -0.2231 25.8431 -5.0969 8.3614 -27.1842 68.6023 -47.5218 71.1274 -0.0000 84.1338 0.0000 0.0000 3.8581 -17.2224 0.0000 -20.8222 -0.0000 -17.4464 17.7184 -8.9963 -0.0000 29.3822 0.0000 0.0000 -3.9320 -19.4856 0.0000 -41.2279 -0.0000 81.7118 2.2549 31.8556 4.8387 0.2915 -2.4572 83.2373 0.5892 49.9679 1.8435 0.4166 31.9167 -3.7552 -0.0000 -26.3099 98.6730 -34.8808 77.7163 0.0000 -6.7627 -75.0021 6.7420 4.8616 0.0000 5.0004 -0.0000 -4.1565 -48.4303 29.1007 39.3369 180.0000 -73.3980 138.0535 32.3618 -4.3586 0.0000
 82.6736 -0.2267 25.8243 -5.0838 8.3855 -27.1951 68.6780 -47.5589 71.1695 -0.0000 84.2495 0.0000 0.0000 3.8166 -17.1625 0.0000 -20.9707 -0.0000 -17.4666 17.7466 -8.9399 -0.0000 29.3552 0.0000 0.0000 -3.9731 -19.4704 -0.0000 -41.2026 -0.0000 81.7313 2.2515 31.8391 4.8373 0.2558 -2.4534 83.2525 0.5881 49.9517 1.8487 0.3897 31.9287 -3.7523 -0.0000 -26.2950 98.6877 -34.8964 77.6991 0.0000 -6.7276 -74.9632 6.7772 4.8729 0.0000 4.9900 -0.0000 -4.1539 -48.4172 29.1293 39.3257 180.0000 -73.3693 138.1010 32.3675 -4.3988 0.0000
 82.6912 -0.2302 25.8059 -5.0681 8.4131 -27.2034 68.7572 -47.6010 71.2165 -0.0000 84.3602 0.0000 0.0000 3.7892 -17.0990 0.0000 -21.1259 -0.0000 -17.4821 17.7820 -8.8794 -0.0000 29.3025 0.0000 -0.0000 -3.9975 -19.4575 0.0000 -41.2463 -0.0000 81.7496 2.2480 31.8227 4.8314 0.2163 -2.4532 83.2682 0.5879 49.9348 1.8677 0.3626 31.9388 -3.7484 -0.0000 -26.2815 98.7096 -34.9115 77.6841 0.0000 -6.6948 -74.9182 6.7873 4.8862 0.0000 4.9785 -0.0000 -4.1496 -48.3924 29.1464 39.3060 180.0000 -73.3520 138.1507 32.3813 -4.4067 0.0000
 82.7065 -0.2327 25.7878 -5.0505 8.4425 -27.2084 68.8374 -47.6533 71.2631 -0.0000 84.4678 0.0000 0.0000 3.7620 -17.0318 0.0000 -21.2551 -0.0000 -17.4927 17.8229 -8.8121 -0.0000 29.2347 0.0000 -0.0000 -4.0594 -19.4414 0.0000 -41.2295 -0.0000 81.7669 2.2448 31.8056 4.8238 0.1750 -2.4586 83.2838 0.5884 49.9175 1.8895 0.3347 31.9414 -3.7396 -0.0000 -26.2717 98.7354 -34.9201 77.6718 0.0000 -6.6605 -74.8781 6.7943 4.8905 -0.0000 4.9629 -0.0000 -4.1433 -48.3630 29.1524 39.2891 180.0000 -73.3396 138.1993 32.3772 -4.4010 0.0000
 82.7203 -0.2347 25.7697 -5.0322 8.4725 -27.2094 68.9195 -47.7116 71.3115 -0.0000 84.5736 0.0000 0.0000 3.7379 -16.9690 0.0000 -21.3688 -0.0000 -17.4972 17.8665 -8.7413 -0.0000 29.1577 0.0000 0.0000 -4.1089 -19.4431 0.0000 -41.2551 -0.0000 81.7838 2.2417 31.7883 4.8153 0.1297 -2.4701 83.2979 0.5894 49.9008 1.9062 0.3178 31.9364 -3.7272 -0.0000 -26.2674 98.7542 -34.9208 77.6584 0.0000 -6.6340 -74.8636 6.7857 4.8848 -0.0000 4.9451 -0.0000 -4.1331 -48.3305 29.1501 39.2731 180.0000 -73.3349 138.2389 32.3692 -4.3839 0.0000
 82.7332 -0.2364 25.7522 -5.0150 8.5033 -27.2071 69.0009 -47.7712 71.3583 -0.0000 84.6747 0.0000 0.0000 3.7080 -16.9127 0.0000 -21.4596 -0.0000 -17.4953 17.9093 -8.6769 -0.0000 29.0817 0.0000 -0.0000 -4.1792 -19.4541 0.0000 -41.2330 -0.0000 81.8007 2.2384 31.7709 4.8078 0.0823 -2.4872 83.3111 0.5906 49.8851 1.9175 0.3075 31.9246 -3.7128 -0.0000 -26.2653 98.7622 -34.9138 77.6425 0.0000 -6.6268 -74.8833 6.7561 4.8681 -0.0000 4.9287 -0.0000 -4.1237 -48.3015 29.1398 39.2633 180.0000 -73.3376 138.2748 32.3641 -4.3713 0.0000
 82.7460 -0.2383 25.7359 -5.0005 8.5346 -27.2030 69.0783 -47.8257 71.4022 -0.0000 84.7679 0.0000 0.0000 3.6778 -16.8659 0.0000 -21.5574 -0.0000 -17.4872 17.9443 -8.6210 -0.0000 29.0168 0.0000 0.0000 -4.2147 -19.4878 0.0000 -41.2618 -0.0000 81.8174 2.2351 31.7538 4.8030 0.0337 -2.5083 83.3226 0.5919 49.8709 1.9207 0.3102 31.9091 -3.6971 -0.0000 -26.2640 98.7579 -34.9020 77.6226 0.0000 -6.6349 -74.9258 6.7192 4.8409 0.0000 4.9171 -0.0000 -4.1137 -48.2821 29.1225 39.2609 180.0000 -73.3445 138.3021 32.3538 -4.3599 0.0000
